<svg width="11" height="11" viewBox="0 0 11 11" fill="none" xmlns="http://www.w3.org/2000/svg">
<path d="M4.77721 1.80556H7.04994C7.04994 1.50627 6.93021 1.21923 6.7171 1.00761C6.504 0.795976 6.21496 0.677083 5.91357 0.677083C5.61219 0.677083 5.32315 0.795976 5.11004 1.00761C4.89693 1.21923 4.77721 1.50627 4.77721 1.80556ZM4.09539 1.80556C4.09539 1.32669 4.28695 0.867442 4.62793 0.528835C4.9689 0.190228 5.43136 0 5.91357 0C6.39579 0 6.85825 0.190228 7.19922 0.528835C7.5402 0.867442 7.73176 1.32669 7.73176 1.80556H10.5727C10.6631 1.80556 10.7498 1.84122 10.8137 1.90471C10.8777 1.9682 10.9136 2.05431 10.9136 2.1441C10.9136 2.23388 10.8777 2.31999 10.8137 2.38348C10.7498 2.44697 10.6631 2.48264 10.5727 2.48264H9.97721L9.42403 9.07427C9.38378 9.55379 9.16354 10.0008 8.80698 10.3266C8.45042 10.6524 7.98358 10.8333 7.49903 10.8333H4.32812C3.84357 10.8333 3.37673 10.6524 3.02017 10.3266C2.66361 10.0008 2.44337 9.55379 2.40312 9.07427L1.84994 2.48264H1.25448C1.16407 2.48264 1.07736 2.44697 1.01342 2.38348C0.949491 2.31999 0.913574 2.23388 0.913574 2.1441C0.913574 2.05431 0.949491 1.9682 1.01342 1.90471C1.07736 1.84122 1.16407 1.80556 1.25448 1.80556H4.09539ZM3.08267 9.01785C3.10866 9.32814 3.25113 9.61739 3.48182 9.82826C3.71252 10.0391 4.01458 10.1562 4.32812 10.1563H7.49903C7.81257 10.1562 8.11463 10.0391 8.34533 9.82826C8.57602 9.61739 8.71849 9.32814 8.74448 9.01785L9.29358 2.48264H2.53403L3.08267 9.01785ZM4.89085 4.0625C4.98126 4.0625 5.06797 4.09817 5.13191 4.16166C5.19584 4.22515 5.23176 4.31125 5.23176 4.40104V8.23785C5.23176 8.32763 5.19584 8.41374 5.13191 8.47723C5.06797 8.54072 4.98126 8.57639 4.89085 8.57639C4.80043 8.57639 4.71372 8.54072 4.64979 8.47723C4.58586 8.41374 4.54994 8.32763 4.54994 8.23785V4.40104C4.54994 4.31125 4.58586 4.22515 4.64979 4.16166C4.71372 4.09817 4.80043 4.0625 4.89085 4.0625ZM7.27721 4.40104C7.27721 4.31125 7.24129 4.22515 7.17736 4.16166C7.11343 4.09817 7.02672 4.0625 6.9363 4.0625C6.84589 4.0625 6.75918 4.09817 6.69524 4.16166C6.63131 4.22515 6.59539 4.31125 6.59539 4.40104V8.23785C6.59539 8.32763 6.63131 8.41374 6.69524 8.47723C6.75918 8.54072 6.84589 8.57639 6.9363 8.57639C7.02672 8.57639 7.11343 8.54072 7.17736 8.47723C7.24129 8.41374 7.27721 8.32763 7.27721 8.23785V4.40104Z" fill="#FF5858"/>
</svg>
