<svg width="15" height="10" viewBox="0 0 15 10" fill="none" xmlns="http://www.w3.org/2000/svg">
<path d="M7.91357 0C6.11107 0 4.69357 1.42273 4.49539 3.23864C4.11417 3.30246 3.75665 3.47218 3.46068 3.72983C3.1647 3.98749 2.94129 4.32349 2.81407 4.70227C1.73782 5.02455 0.913574 6.02182 0.913574 7.27273C0.913574 8.78364 2.08432 10 3.53857 10H12.2886C13.7428 10 14.9136 8.78364 14.9136 7.27273C14.9136 6.47273 14.5395 5.75636 13.9974 5.25546C13.8959 3.65818 12.6696 2.38364 11.1266 2.30091C10.5998 0.969546 9.39145 0 7.91357 0ZM7.91357 0.909091C9.12195 0.909091 10.0879 1.71364 10.4292 2.85455L10.5254 3.18182H10.9761C12.1814 3.18182 13.1636 4.20227 13.1636 5.45455V5.68182L13.3412 5.82409C13.5556 5.99479 13.7298 6.21392 13.8506 6.4649C13.9714 6.71588 14.0357 6.99212 14.0386 7.27273C14.0386 8.30727 13.2843 9.09091 12.2886 9.09091H3.53857C2.54282 9.09091 1.78857 8.30727 1.78857 7.27273C1.78857 6.35455 2.42295 5.64182 3.22357 5.49727L3.51101 5.44045L3.5657 5.14182C3.69695 4.52864 4.21932 4.09091 4.85107 4.09091H5.28857V3.63636C5.28857 2.10455 6.4392 0.909091 7.91357 0.909091ZM7.47607 3.18182V6.165L6.47857 5.12773L5.84857 5.78227L7.59857 7.60046L7.91357 7.91227L8.22857 7.6L9.97857 5.78182L9.34857 5.12727L8.35107 6.165V3.18182H7.47607Z" fill="#6C6C6A"/>
</svg>
