<svg width="56" height="17" viewBox="0 0 56 17" fill="none" xmlns="http://www.w3.org/2000/svg">
<path d="M9.47034 15.2502C11.0801 14.9662 12.6892 14.6813 14.2983 14.3956L14.343 14.3862L11.8599 11.4327C10.4943 9.8083 9.37694 8.47294 9.37694 8.46535C9.37694 8.45079 11.9408 1.39021 11.9553 1.36504C11.9601 1.35672 13.7049 4.3691 16.1849 8.66744C18.5067 12.6915 20.4208 16.0094 20.4386 16.0405L20.471 16.0969L12.5798 16.0959L4.68847 16.0949L9.47034 15.2502ZM39.7324 14.5359C38.5311 14.4589 37.8326 13.775 37.6474 12.4946C37.5982 12.1541 37.5979 12.1452 37.593 9.93425L37.5881 7.79429H38.6513L38.6555 9.86405C38.6592 11.7296 38.6616 11.9484 38.6794 12.0795C38.7518 12.6121 38.896 12.9704 39.1412 13.2274C39.3376 13.4331 39.5674 13.5536 39.8856 13.6175C40.0358 13.6477 40.4628 13.6477 40.5996 13.6176C40.9221 13.5467 41.1807 13.4063 41.4088 13.1783C41.6688 12.9185 41.861 12.5497 41.9541 12.133L41.9854 11.9924L41.989 9.90503L41.9924 7.8177H43.0779V14.3804H42.0036V13.8598C42.0036 13.5061 41.9998 13.3404 41.9916 13.3432C41.9849 13.3454 41.9572 13.3876 41.9302 13.437C41.7451 13.7745 41.4367 14.0833 41.0988 14.2693C40.6936 14.4922 40.2875 14.5715 39.7324 14.5359ZM51.9246 14.5307C51.5006 14.4987 51.0541 14.3529 50.6892 14.1271C49.9201 13.6515 49.465 12.8673 49.3317 11.788C49.2856 11.4146 49.2801 10.9129 49.3186 10.5955C49.4045 9.88651 49.6832 9.19039 50.0799 8.69344C50.1817 8.56613 50.4124 8.33534 50.5398 8.23372C50.8829 7.95946 51.2844 7.76775 51.7134 7.67343C51.9623 7.61904 52.4007 7.59345 52.6651 7.618C53.3295 7.67957 53.9383 7.99232 54.3521 8.48459C54.7726 8.98487 55.0037 9.6838 55.0332 10.5444C55.0378 10.6793 55.0389 10.9157 55.0357 11.0698L55.0298 11.3501L52.7031 11.353L50.3764 11.3559V11.4598C50.3764 11.7759 50.4531 12.1359 50.586 12.4422C50.7006 12.7064 50.8978 12.9948 51.0593 13.1344C51.3903 13.4206 51.7955 13.5919 52.2388 13.6331C52.4032 13.6484 52.8223 13.6323 53.0095 13.6035C53.5441 13.5213 54.0522 13.3117 54.4625 13.0041C54.4963 12.9784 54.5306 12.9533 54.5653 12.9289C54.5773 12.9214 54.5802 13.0159 54.5799 13.4135L54.5794 13.9075L54.4695 13.9755C54.0052 14.2625 53.4734 14.447 52.9104 14.5159C52.7422 14.5365 52.1257 14.5459 51.9246 14.5307ZM53.9497 10.3646C53.9497 9.83514 53.7265 9.24697 53.4107 8.9441C53.1854 8.72797 52.913 8.59588 52.5891 8.54575C52.4359 8.52203 52.1131 8.53119 51.9516 8.56374C51.6101 8.6328 51.3277 8.78289 51.0813 9.02627C50.8221 9.28244 50.6278 9.59363 50.5055 9.94809C50.4615 10.0756 50.4102 10.2849 50.3943 10.4014L50.3866 10.4568H53.9496L53.9497 10.3646ZM22.388 14.3658C22.3907 14.3577 23.1809 12.2821 24.1438 9.75328L25.8947 5.1553H27.0197L27.0664 5.27491C27.209 5.6407 30.5715 14.3704 30.5715 14.375C30.5715 14.3779 30.3021 14.3804 29.973 14.3803L29.3746 14.3802L28.8899 13.09L28.4052 11.7996H24.5028L24.4858 11.8434C24.4764 11.8676 24.2694 12.4481 24.0256 13.1335L23.5826 14.38L22.9827 14.3802C22.5081 14.3803 22.3841 14.3774 22.388 14.3658ZM28.0492 10.815C28.0492 10.8129 27.723 9.92885 27.3244 8.85028C26.5786 6.83253 26.537 6.71115 26.478 6.38717C26.4505 6.23532 26.4364 6.23115 26.42 6.36969C26.4084 6.46871 26.3576 6.69045 26.3183 6.81339C26.2988 6.87444 25.9631 7.79606 25.5721 8.86162C25.1811 9.92708 24.8612 10.8032 24.8612 10.8088C24.8612 10.8143 25.5785 10.8187 26.4552 10.8187C27.3318 10.8187 28.0492 10.817 28.0492 10.815ZM30.9334 14.2123V14.0443L32.8775 11.3719L34.8216 8.69937L33.0614 8.69344L31.3013 8.68761L31.2982 8.241L31.2952 7.79429H36.3868V8.09602L34.4425 10.7831C33.3731 12.261 32.4982 13.4727 32.4982 13.4757C32.4982 13.4787 33.3626 13.4812 34.4191 13.4812H36.3401V14.3804H30.9334L30.9334 14.2123ZM45.1994 14.3726C45.1951 14.3683 45.1916 12.8864 45.1916 11.0796V7.79429H46.2542V8.47159C46.2542 8.84415 46.2587 9.14889 46.2643 9.14889C46.2698 9.14889 46.2956 9.08794 46.3217 9.01337C46.4412 8.67191 46.6483 8.35281 46.9153 8.09914C47.1557 7.87074 47.4304 7.73407 47.7547 7.68175C47.8459 7.66719 47.9229 7.66428 48.105 7.66906C48.3339 7.67499 48.4535 7.69174 48.5926 7.73719L48.6363 7.75154V8.85455L48.5109 8.79173C48.2891 8.68075 48.0703 8.63675 47.8073 8.65048C47.6361 8.65932 47.5237 8.68138 47.3869 8.73265C47.109 8.83531 46.8734 9.02777 46.7174 9.27952C46.4863 9.64813 46.3215 10.1219 46.2729 10.5574C46.2642 10.6355 46.2591 11.2719 46.257 12.5265L46.2539 14.3804H45.7305C45.4426 14.3804 45.2036 14.3769 45.1994 14.3726ZM0 14.3495C0 14.3453 1.16999 12.3144 2.59999 9.83618L5.19998 5.33034L8.22994 2.78766C9.89636 1.38917 11.2644 0.243104 11.2699 0.241024C11.2753 0.238944 11.2535 0.294068 11.2211 0.363545C11.1889 0.433127 9.70831 3.6087 7.93102 7.42049L4.6995 14.3511L2.34975 14.3541C1.05745 14.3557 0 14.3537 0 14.3495Z" fill="#0089D6"/>
</svg>
