<svg width="56" height="13" viewBox="0 0 56 13" fill="none" xmlns="http://www.w3.org/2000/svg">
<path d="M6.53938 10.8867C6.55791 10.77 6.56266 2.32995 6.54502 2.1458C5.11093 2.48742 3.67896 2.82867 2.2411 3.17116V9.12075C1.50084 9.41002 0.763233 9.69814 0.0259209 9.98601C0.0211754 9.98333 0.0171089 9.98186 0.0132675 9.97915C0.010025 9.9768 0.00587463 9.97323 0.0055809 9.96996C0.00324631 9.94771 0.000305176 9.92541 0.000305176 9.90282C0 7.49886 0 5.09456 0 2.69646C0.0330048 2.65587 0.0756531 2.65078 0.112724 2.63714C2.22023 1.84786 4.32833 1.05944 6.43607 0.270254C6.50908 0.24288 6.57531 0.229483 6.65624 0.253317C7.81274 0.588888 8.97035 0.920737 10.1277 1.25371C10.1445 1.25881 10.1613 1.26473 10.1851 1.27245V11.405C9.85279 11.4974 9.52344 11.5898 9.19378 11.6806C8.3546 11.912 7.51487 12.1417 6.67629 12.3748C6.59415 12.3978 6.52234 12.396 6.44164 12.3662C4.36865 11.6002 2.29467 10.8365 0.221378 10.0724C0.180466 10.0573 0.140385 10.0404 0.105946 10.0038C2.25051 10.2982 4.39509 10.5923 6.53938 10.8867Z" fill="#DC3E15"/>
<path d="M22.2204 5.47352H21.3391V4.76712H22.1841C22.2339 4.72174 22.2198 4.67865 22.2198 4.64032C22.2212 4.38844 22.2204 4.1362 22.2207 3.88403C22.221 3.58284 22.271 3.29144 22.4128 3.0229C22.7022 2.47603 23.1587 2.18228 23.7786 2.14689C23.982 2.13536 24.1851 2.14364 24.3835 2.19893C24.4176 2.20842 24.4509 2.22185 24.4885 2.23489V2.96589C24.4485 2.98582 24.4209 2.95373 24.39 2.94148C24.1654 2.85274 23.9352 2.82776 23.6988 2.87822C23.4742 2.92663 23.306 3.05118 23.1982 3.25607C23.1301 3.38589 23.0901 3.5249 23.0775 3.66836C23.0455 4.02722 23.0677 4.38693 23.0625 4.7547H25.0808C25.1094 4.71818 25.0984 4.68077 25.0984 4.64625C25.0996 4.37599 25.0955 4.10563 25.1 3.83563C25.1079 3.35766 25.2568 2.93503 25.6044 2.59308C25.8764 2.32606 26.2057 2.18287 26.5827 2.15079C26.7992 2.1324 27.0164 2.1374 27.2292 2.19058C27.2769 2.20221 27.3272 2.20813 27.3684 2.24556V2.98071C27.2313 2.92848 27.1021 2.87942 26.9627 2.86224C26.8215 2.84497 26.6826 2.85151 26.546 2.88536C26.317 2.94241 26.154 3.08233 26.0559 3.29593C25.9876 3.44505 25.9497 3.60367 25.9458 3.7664C25.9391 4.08128 25.9417 4.39673 25.9408 4.71193C25.9408 4.72442 25.9471 4.73689 25.9538 4.76243H27.1576V5.46994H25.9406V9.97023H25.102C25.0958 9.75996 25.1 9.54603 25.099 9.33246C25.0984 9.12095 25.099 8.90919 25.099 8.69774V5.47801H23.0633V9.96989H22.2236C22.2169 9.81045 22.2215 9.64612 22.2207 9.48219C22.2198 9.31584 22.2204 9.1492 22.2204 8.98259V5.47352Z" fill="#DC3E15"/>
<path d="M13.8585 6.41494C13.8665 5.70681 13.9742 5.03604 14.2792 4.40722C14.7504 3.43562 15.5263 2.85252 16.5792 2.63387C17.2079 2.50315 17.8381 2.50643 18.4553 2.69746C19.4637 3.00959 20.1398 3.67918 20.5169 4.65406C20.7603 5.28263 20.8218 5.93821 20.7795 6.60597C20.7512 7.04792 20.6765 7.48167 20.5225 7.899C20.076 9.11122 19.2167 9.84138 17.9376 10.0523C17.2262 10.1696 16.5221 10.1123 15.8524 9.81973C15.0018 9.4481 14.4437 8.80532 14.121 7.94715C13.9336 7.44775 13.8633 6.92852 13.8585 6.41494ZM19.8905 6.29464C19.8853 6.19274 19.8817 6.04421 19.8696 5.89631C19.8331 5.45374 19.7419 5.02384 19.5429 4.62318C19.2783 4.0903 18.8824 3.6937 18.3164 3.48191C18.0392 3.37827 17.7506 3.3328 17.4549 3.32655C16.4655 3.30578 15.7102 3.70973 15.2051 4.56135C14.9553 4.98255 14.8249 5.44567 14.7831 5.93014C14.7292 6.55097 14.7816 7.16175 15.0159 7.74752C15.2691 8.38113 15.6865 8.86296 16.3234 9.13593C16.7264 9.30848 17.149 9.35069 17.5837 9.31268C18.5327 9.22978 19.2047 8.75747 19.5982 7.89512C19.8231 7.40235 19.8829 6.87599 19.8905 6.29464Z" fill="#DC3E15"/>
<path d="M50.1533 2.75946V3.51996C50.1184 3.54367 50.0925 3.51932 50.0651 3.50687C49.7671 3.3699 49.4548 3.28882 49.1265 3.26624C48.5472 3.22675 48.0496 3.40027 47.649 3.82648C47.3629 4.13095 47.1731 4.49185 47.0438 4.88547C46.8818 5.37738 46.8277 5.88593 46.8221 6.40872C46.8831 6.39746 46.8869 6.34516 46.9066 6.31067C47.0939 5.98633 47.3425 5.72696 47.689 5.56986C47.8882 5.47952 48.0979 5.42905 48.316 5.4148C48.6248 5.39456 48.9303 5.41181 49.2263 5.50952C49.8339 5.71069 50.2418 6.12384 50.4523 6.71704C50.6848 7.37293 50.6718 8.03681 50.4152 8.68472C50.046 9.61685 49.2087 10.1402 48.1862 10.099C47.5075 10.0716 46.9755 9.77783 46.5825 9.22977C46.3127 8.85346 46.1567 8.42896 46.0648 7.97925C45.9377 7.35657 45.928 6.72833 45.98 6.09738C46.0289 5.50629 46.153 4.93271 46.3886 4.38556C46.6072 3.87729 46.9099 3.4299 47.3517 3.08536C47.8049 2.73194 48.3215 2.55866 48.8958 2.5513C49.2269 2.5474 49.5545 2.57144 49.8754 2.65851C49.9666 2.68347 50.0566 2.71259 50.1533 2.75946ZM46.8752 7.72016C46.8799 8.10251 47.0118 8.55399 47.3458 8.93573C47.7758 9.42734 48.4101 9.48764 48.9009 9.27405C49.3034 9.09876 49.5445 8.77353 49.6643 8.36182C49.7918 7.92307 49.78 7.48044 49.6384 7.04648C49.5111 6.65524 49.2682 6.35764 48.8722 6.20969C48.5732 6.0983 48.2636 6.08408 47.9539 6.16278C47.307 6.32703 46.8716 6.9122 46.8752 7.72016Z" fill="#DC3E15"/>
<path d="M51.5618 6.31158C51.644 5.11093 51.7265 3.90042 51.8101 2.6817H55.1927V3.40977C55.1927 3.40977 55.1899 3.41446 55.1867 3.4171C55.1835 3.42007 55.1794 3.42282 55.1751 3.42393C55.1666 3.42664 55.1578 3.42961 55.1491 3.42961C54.2864 3.42961 53.4235 3.42961 52.543 3.42961C52.488 4.13986 52.4405 4.84569 52.3958 5.5491C52.4523 5.57812 52.4974 5.5627 52.5408 5.56154C52.8926 5.55142 53.2445 5.52763 53.5958 5.57761C54.0464 5.64201 54.4633 5.78613 54.8214 6.07515C55.1888 6.37128 55.4072 6.75745 55.4893 7.21603C55.5725 7.67854 55.5634 8.14134 55.4037 8.5887C55.1655 9.25591 54.6899 9.68869 54.0308 9.93112C53.6169 10.0835 53.1861 10.1111 52.7498 10.099C52.4238 10.09 52.1013 10.057 51.7881 9.95987C51.6846 9.92755 51.5851 9.88596 51.4888 9.83606C51.4514 9.81645 51.4218 9.79591 51.4221 9.74539C51.4239 9.47629 51.423 9.20686 51.423 8.93031C51.4712 8.9268 51.4974 8.95381 51.5258 8.97044C51.8952 9.18991 52.2895 9.33638 52.7201 9.37561C53.0854 9.40915 53.444 9.37947 53.7806 9.22528C54.3027 8.98651 54.6008 8.58133 54.6633 8.00775C54.6879 7.78584 54.6787 7.56627 54.6204 7.35153C54.5015 6.91188 54.2162 6.61694 53.7999 6.44374C53.5511 6.34038 53.2894 6.29135 53.0219 6.28215C52.5657 6.26701 52.1097 6.27684 51.6553 6.3273C51.6299 6.33026 51.6025 6.34099 51.5618 6.31158Z" fill="#DC3E15"/>
<path d="M38.7113 7.58204H35.032C35.0161 7.76717 35.0482 7.93877 35.0829 8.10933C35.135 8.36356 35.231 8.60007 35.3921 8.80675C35.6466 9.13381 35.9886 9.30817 36.3946 9.36255C37.0605 9.45167 37.6658 9.29152 38.2156 8.91129C38.2489 8.88848 38.283 8.86733 38.3172 8.84601C38.3201 8.84394 38.3253 8.84566 38.3307 8.84566C38.3557 8.88193 38.3434 8.92351 38.3439 8.96273C38.3451 9.13381 38.3386 9.3052 38.3465 9.4757C38.3517 9.57464 38.3146 9.63044 38.2321 9.6807C37.9636 9.84527 37.6757 9.95814 37.3678 10.0205C36.9034 10.1147 36.4348 10.1405 35.9682 10.0514C35.1904 9.90232 34.672 9.4359 34.3753 8.7132C34.2599 8.43192 34.1981 8.13692 34.1712 7.83573C34.1255 7.32061 34.1478 6.8106 34.3223 6.3163C34.547 5.68064 34.924 5.16858 35.5426 4.86614C36.1546 4.56698 36.7893 4.54978 37.4227 4.78386C37.974 4.98765 38.3189 5.40294 38.5244 5.94149C38.6427 6.25158 38.695 6.57569 38.7093 6.90482C38.719 7.12395 38.7113 7.3438 38.7113 7.58204ZM37.8504 6.86466C37.8471 6.48832 37.7817 6.14017 37.5683 5.83213C37.45 5.66166 37.2976 5.52591 37.1023 5.45371C36.6335 5.28022 36.1771 5.30167 35.7599 5.59388C35.3237 5.89989 35.1194 6.34484 35.0349 6.86466C35.9736 6.86466 36.9022 6.86466 37.8504 6.86466Z" fill="#DC3E15"/>
<path d="M41.5772 6.53905V5.86119C41.6314 5.83595 41.6815 5.84721 41.7301 5.84697C42.0099 5.84425 42.29 5.85347 42.5694 5.82318C42.804 5.79762 43.0338 5.75218 43.2499 5.65565C43.6865 5.46077 43.9166 5.121 43.9504 4.64747C43.9638 4.46269 43.9594 4.27795 43.9143 4.09738C43.803 3.65123 43.5049 3.3999 43.064 3.30952C42.4361 3.18127 41.854 3.30159 41.3167 3.64734C41.2864 3.66667 41.2568 3.68742 41.2269 3.70764C41.2014 3.72516 41.1755 3.7424 41.1289 3.7742C41.1278 3.62536 41.1267 3.49403 41.126 3.36279C41.1254 3.23268 41.126 3.10225 41.126 2.96918C41.3738 2.8165 41.637 2.71397 41.9155 2.64987C42.4371 2.52983 42.962 2.49957 43.4846 2.63466C44.0068 2.76988 44.4177 3.05859 44.6622 3.55168C44.8237 3.87782 44.8409 4.22687 44.8045 4.58061C44.7833 4.78769 44.7312 4.98761 44.6414 5.17682C44.4656 5.54722 44.1766 5.80266 43.8118 5.97795C43.7025 6.03026 43.5866 6.06912 43.4731 6.11397C43.4453 6.12501 43.4095 6.12175 43.3894 6.16388C43.5624 6.19391 43.733 6.22304 43.8958 6.28303C44.4536 6.48826 44.8779 6.84416 45.0195 7.43287C45.207 8.21171 45.0216 8.90654 44.4173 9.46144C44.0653 9.78432 43.6415 9.96788 43.1726 10.0448C42.5772 10.1426 41.9855 10.1247 41.4022 9.95805C41.2323 9.90965 41.0717 9.83931 40.9177 9.75221C40.8715 9.72606 40.8408 9.69847 40.8413 9.63817C40.8446 9.37732 40.8438 9.11627 40.845 8.85483C40.845 8.84772 40.8532 8.8406 40.8626 8.82568C40.9023 8.85248 40.9421 8.87945 40.9818 8.90654C41.6547 9.36041 42.3878 9.4917 43.1773 9.30609C43.3903 9.25587 43.5826 9.15603 43.7536 9.01794C44.0356 8.78952 44.186 8.4919 44.2163 8.13423C44.2326 7.94526 44.2226 7.75729 44.1729 7.57191C44.0903 7.26507 43.9124 7.03213 43.6421 6.86703C43.4032 6.72119 43.139 6.64895 42.8653 6.60417C42.4932 6.54323 42.1182 6.55418 41.7436 6.55276C41.6906 6.55276 41.6358 6.56402 41.5772 6.53905Z" fill="#DC3E15"/>
<path d="M33.5621 4.89995V5.73233C33.5049 5.73233 33.4706 5.6922 33.4299 5.66815C33.052 5.44205 32.6464 5.32921 32.2034 5.3533C31.5515 5.38892 31.0817 5.70944 30.7629 6.26527C30.6199 6.51504 30.5431 6.78776 30.5131 7.07202C30.4718 7.4602 30.4871 7.84552 30.609 8.22034C30.8412 8.9342 31.4438 9.37355 32.1969 9.38715C32.645 9.39554 33.0518 9.27249 33.4246 9.02893C33.4617 9.00488 33.4932 8.97072 33.5496 8.96002V9.73234C33.5328 9.75999 33.4934 9.77484 33.4579 9.79233C32.6438 10.1859 31.8159 10.2278 30.9875 9.85199C30.3929 9.58235 30.0023 9.10972 29.7986 8.49873C29.5178 7.65538 29.5587 6.81567 29.9558 6.01834C30.36 5.20741 31.0418 4.76546 31.9417 4.65698C32.4146 4.60028 32.8793 4.63174 33.3301 4.79455C33.4065 4.8222 33.4824 4.85071 33.5621 4.89995Z" fill="#DC3E15"/>
<path d="M28.7589 9.97884H27.9553C27.9251 9.87702 27.9133 5.05296 27.9407 4.78295C28.0375 4.7589 28.5714 4.75205 28.7587 4.77259C28.7772 4.87713 28.7795 9.83421 28.7589 9.97884Z" fill="#DC3E15"/>
<path d="M27.8159 2.88371C27.8218 2.57685 28.0669 2.34661 28.3801 2.35406C28.693 2.3615 28.9275 2.60357 28.9191 2.90983C28.9105 3.21281 28.6598 3.44717 28.3509 3.44096C28.0367 3.43441 27.8099 3.19851 27.8159 2.88371Z" fill="#DC3E15"/>
</svg>
