<svg width="20" height="21" viewBox="0 0 20 21" fill="none" xmlns="http://www.w3.org/2000/svg">
<rect width="20" height="21" fill="black"/>
<g clip-path="url(#clip0_7_3107)">
<path d="M-1183 -12C-1183 -17.5228 -1178.52 -22 -1173 -22H247C252.523 -22 257 -17.5228 257 -12V43H-1183V-12Z" fill="#262626"/>
<g clip-path="url(#clip1_7_3107)">
<path fill-rule="evenodd" clip-rule="evenodd" d="M9.49351 21.0003C8.0823 20.9928 6.94328 19.8448 6.94681 18.4336C6.94485 18.2497 6.89511 18.0695 6.80239 17.9106L6.7968 17.901C6.65297 17.6451 6.41211 17.4578 6.12865 17.3812C5.84676 17.3052 5.54617 17.3456 5.29443 17.4934L5.28406 17.4999C4.69443 17.8351 3.99465 17.9184 3.34284 17.7309C2.69378 17.5428 2.14566 17.105 1.81893 16.5133L1.21579 15.4618C0.515518 14.2365 0.928416 12.676 2.14302 11.9574C2.48787 11.7545 2.69956 11.3842 2.69956 10.9841C2.69956 10.5839 2.48787 10.2136 2.14302 10.0107C0.929003 9.28847 0.516987 7.72706 1.21657 6.49987L1.22538 6.48548L1.86142 5.42831C2.3129 4.63909 3.15152 4.15124 4.06074 4.14899H4.06553C4.50898 4.14953 4.9445 4.26712 5.32802 4.48987L5.33761 4.4955C5.49359 4.58911 5.67159 4.63948 5.85342 4.64149C6.4591 4.63586 6.94984 4.14825 6.95944 3.54262V3.53542C6.95885 2.85845 7.22449 2.20851 7.69907 1.7258C8.17326 1.24299 8.82144 0.970796 9.49811 0.970306H10.6972C11.3869 0.970992 12.0465 1.25283 12.5237 1.75077C12.9873 2.23304 13.246 2.87617 13.2455 3.54511V3.59157C13.2469 3.77506 13.2967 3.95488 13.3899 4.11296C13.5373 4.36773 13.78 4.55327 14.0645 4.62871C14.3483 4.70239 14.6497 4.65965 14.9018 4.51004L14.9091 4.50598C15.2932 4.28284 15.7296 4.16524 16.1739 4.1651H16.174C17.0874 4.16715 17.9295 4.65926 18.3798 5.45402L18.9749 6.49679C18.9899 6.52263 19.0033 6.54941 19.015 6.57698C19.6531 7.79349 19.2308 9.29655 18.0525 10.0027H18.047C17.8802 10.0986 17.7418 10.237 17.6459 10.4038V10.4086C17.3408 10.9408 17.5194 11.6194 18.047 11.9326C18.6344 12.2751 19.0615 12.8373 19.234 13.495C19.4074 14.1546 19.3142 14.8559 18.975 15.4474L18.9702 15.4554L18.3397 16.5174C17.8903 17.3096 17.0513 17.8007 16.1405 17.8047L16.1365 17.8047C15.6912 17.8041 15.2539 17.6854 14.8693 17.4606L14.8692 17.4606C14.7076 17.3677 14.5259 17.3154 14.3397 17.3081C14.0468 17.3087 13.7664 17.4266 13.5611 17.6355C13.356 17.8448 13.2408 18.126 13.2401 18.4191V18.4359C13.241 19.845 12.1033 20.9899 10.6943 20.9978L9.49351 21.0003ZM6.49913 15.9806C7.59624 16.2877 8.36113 17.2791 8.38003 18.4182V18.4254C8.38003 19.0415 8.87655 19.5426 9.49261 19.5483H10.6916C11.307 19.5457 11.8042 19.0456 11.8033 18.4302V18.4246C11.8027 17.7457 12.0699 17.0939 12.547 16.611C13.0204 16.1306 13.6666 15.8599 14.3411 15.8595H14.3693C14.7955 15.8719 15.2119 15.9895 15.5813 16.202C15.7487 16.3006 15.9396 16.3524 16.1339 16.352C16.5322 16.3512 16.8996 16.1369 17.0964 15.7904L17.1004 15.7817L17.7261 14.7285C17.824 14.5576 17.8754 14.3641 17.8753 14.1671C17.8752 14.0701 17.8628 13.9736 17.8383 13.8799C17.7634 13.5938 17.5774 13.3493 17.3219 13.2006C16.5336 12.7374 16.0495 11.8914 16.0496 10.9772C16.0494 10.5247 16.1678 10.0803 16.3929 9.68805C16.6142 9.29875 16.9347 8.975 17.3217 8.74975C17.8452 8.43355 18.0229 7.75868 17.7228 7.22575C17.7103 7.20357 17.6991 7.1808 17.6891 7.1575L17.1276 6.17578C16.9308 5.82951 16.5636 5.61528 16.1652 5.61435C15.9722 5.61459 15.7826 5.66575 15.6157 5.76269C15.2272 5.99278 14.7839 6.11409 14.3324 6.114H14.3323C14.1181 6.11458 13.9046 6.08761 13.6971 6.03381C13.0425 5.86104 12.4838 5.43434 12.145 4.84828C11.923 4.46946 11.8038 4.03923 11.7992 3.60019V3.54002C11.7991 3.24819 11.6865 2.96758 11.485 2.75648C11.2751 2.53848 10.9855 2.4154 10.6827 2.4155H9.4836C9.18918 2.41555 8.90709 2.53402 8.70089 2.74434C8.49498 2.95446 8.37974 3.23698 8.37993 3.53121V3.54967C8.36769 4.94918 7.23357 6.07934 5.83411 6.08678L5.82608 6.08673C5.39438 6.08188 4.9715 5.96287 4.60061 5.74178C4.34515 5.59408 4.04104 5.55482 3.7564 5.63276C3.47167 5.71065 3.23003 5.89927 3.08531 6.15654L3.0765 6.17177L2.44281 7.22491C2.14388 7.75947 2.32453 8.43487 2.85032 8.74892C3.63901 9.21445 4.12299 10.0621 4.12299 10.978C4.12299 11.8938 3.63901 12.7415 2.85032 13.207C2.32277 13.5202 2.14418 14.1987 2.44927 14.731L3.05241 15.7834L3.05966 15.7954C3.20202 16.0561 3.4425 16.2492 3.72781 16.332C4.01039 16.4131 4.31363 16.3778 4.57006 16.2342C5.15088 15.893 5.84468 15.7999 6.49502 15.9758L6.49913 15.9806ZM6.85921 10.9853C6.8787 9.20161 8.3371 7.76954 10.1209 7.78261C11.9046 7.79564 13.3419 9.2489 13.3352 11.0327C13.3286 12.8165 11.8805 14.259 10.0966 14.2586C8.29941 14.2485 6.8504 12.7841 6.85921 10.9869V10.9853ZM8.29246 10.9853C8.30313 11.979 9.11551 12.7771 10.1093 12.7699C11.1032 12.7627 11.904 11.953 11.9002 10.9591C11.8964 9.96525 11.0895 9.16168 10.0956 9.16202C9.09446 9.16947 8.28796 9.98561 8.29246 10.9868V10.9853Z" fill="white"/>
</g>
</g>
<defs>
<clipPath id="clip0_7_3107">
<rect width="1440" height="787" fill="white" transform="translate(-1183 -22)"/>
</clipPath>
<clipPath id="clip1_7_3107">
<rect width="196.316" height="43.9706" fill="white" transform="translate(0.875 -11)"/>
</clipPath>
</defs>
</svg>
