<svg width="29" height="27" viewBox="0 0 29 27" fill="none" xmlns="http://www.w3.org/2000/svg">
<path d="M15.5632 12.4092V2.69995M15.5632 2.69995L19.3359 6.34086M15.5632 2.69995L11.7905 6.34086" stroke="white" stroke-width="2" stroke-linecap="round" stroke-linejoin="round"/>
<path d="M26.8813 14.8361L23.1086 3.91339M26.8813 14.8361V23.332C26.8813 23.6538 26.7488 23.9624 26.513 24.19C26.2772 24.4176 25.9574 24.5454 25.624 24.5454H5.50248C5.16901 24.5454 4.84919 24.4176 4.61339 24.19C4.37759 23.9624 4.24512 23.6538 4.24512 23.332V14.8361M26.8813 14.8361H20.5933C20.5933 16.1236 20.0633 17.3583 19.12 18.2687C18.1767 19.179 16.8973 19.6905 15.5632 19.6905C14.2292 19.6905 12.9497 19.179 12.0064 18.2687C11.0631 17.3583 10.5332 16.1236 10.5332 14.8361H4.24512M4.24512 14.8361L8.01782 3.91339" stroke="#DE575D" stroke-width="2" stroke-linecap="round" stroke-linejoin="round"/>
</svg>
