<svg xmlns="http://www.w3.org/2000/svg" shape-rendering="geometricPrecision" text-rendering="geometricPrecision" image-rendering="optimizeQuality" fill-rule="evenodd" clip-rule="evenodd" viewBox="0 0 512 512"><g fill-rule="nonzero"><path fill="#FF5757" d="M145.227 0h221.546c39.961 0 76.278 16.334 102.589 42.638C495.666 68.942 512 105.262 512 145.224v221.549c0 39.965-16.334 76.278-42.638 102.589C443.051 495.666 406.738 512 366.773 512H145.227c-39.965 0-76.278-16.334-102.589-42.638C16.334 443.051 0 406.738 0 366.773V145.224c0-39.962 16.334-76.282 42.638-102.586C68.949 16.334 105.266 0 145.227 0z"/><path fill="#CF4646" d="M205.222 225.277c-4.073-.173-6.969-1.531-8.641-4.07-4.538-6.8 1.657-13.521 5.947-18.25 12.196-13.374 42.058-45.523 48.076-52.604 4.557-5.036 11.051-5.036 15.603 0 6.217 7.261 37.588 40.876 49.175 53.882 4.02 4.528 8.994 10.705 4.805 16.972-1.711 2.539-4.57 3.897-8.648 4.07h-24.744v61.154c0 6.53-5.356 11.894-11.889 11.894h-33.043c-6.534 0-11.89-5.353-11.89-11.894v-61.154h-24.751zm-74.783 62.033c-1.362-5.622.932-10.038 4.595-12.657a12.882 12.882 0 014.405-1.999 12.864 12.864 0 014.816-.244c4.462.641 8.529 3.519 9.901 9.159a351.995 351.995 0 012.367 10.485l1.869 9.213c2.442 12.325 4.254 20.058 8.806 23.909 4.812 4.073 13.928 5.482 31.397 5.482h122.694c16.122 0 24.539-1.545 28.962-5.543 4.265-3.854 5.936-11.396 8.101-22.969l.118-.598c1.135-6.109 2.381-12.711 4.139-19.979 1.372-5.637 5.435-8.518 9.901-9.159a12.871 12.871 0 014.816.244 12.858 12.858 0 014.405 1.999c3.663 2.608 5.957 7.024 4.596 12.654-1.603 6.627-2.835 13.2-3.962 19.237l-.065.349c-3.162 16.911-5.788 28.54-14.49 36.717-8.615 8.096-22.115 11.525-46.521 11.525H198.595c-25.522 0-39.551-3.072-48.574-11.065-9.249-8.194-12.051-20.083-15.62-38.117l-1.895-9.408a322 322 0 00-2.067-9.235z"/><path fill="#fff" d="M200.457 220.512c-4.074-.173-6.97-1.531-8.64-4.07-4.539-6.801 1.656-13.521 5.946-18.251 12.196-13.373 42.058-45.522 48.077-52.603 4.556-5.036 11.05-5.036 15.602 0 6.217 7.261 37.588 40.876 49.175 53.882 4.02 4.528 8.994 10.705 4.805 16.972-1.711 2.539-4.571 3.897-8.648 4.07H282.03v61.154c0 6.53-5.356 11.893-11.889 11.893h-33.043c-6.534 0-11.889-5.352-11.889-11.893v-61.154h-24.752zm-74.784 62.033c-1.361-5.622.933-10.038 4.596-12.656a12.825 12.825 0 014.405-1.999 12.844 12.844 0 014.816-.245c4.462.641 8.529 3.518 9.901 9.159a345.616 345.616 0 012.366 10.485l1.87 9.213c2.442 12.325 4.254 20.058 8.806 23.909 4.812 4.073 13.928 5.481 31.397 5.481h122.694c16.122 0 24.539-1.545 28.962-5.543 4.265-3.854 5.936-11.396 8.101-22.968l.118-.598c1.135-6.109 2.381-12.711 4.139-19.979 1.372-5.637 5.435-8.518 9.901-9.159a12.85 12.85 0 014.816.245 12.82 12.82 0 014.405 1.999c3.663 2.607 5.957 7.023 4.595 12.652-1.602 6.628-2.834 13.201-3.962 19.238l-.064.349c-3.163 16.91-5.788 28.54-14.49 36.717-8.616 8.096-22.115 11.525-46.521 11.525H193.83c-25.523 0-39.551-3.072-48.574-11.064-9.249-8.194-12.051-20.084-15.621-38.118l-1.894-9.408a317.854 317.854 0 00-2.068-9.235z"/></g></svg>